<mxfile host="app.diagrams.net" modified="2024-07-06T12:23:30.170Z" agent="Mozilla/5.0 (Windows NT 10.0; Win64; x64) AppleWebKit/537.36 (KHTML, like Gecko) Chrome/126.0.0.0 Safari/537.36" version="24.6.4" etag="-m4pza_nrL6UF8RF8ZP_" type="device">
  <diagram id="9eF06tDySmSrEnwJd4Oo" name="Page-1">
    <mxGraphModel dx="2074" dy="1098" grid="1" gridSize="10" guides="1" tooltips="1" connect="1" arrows="1" fold="1" page="1" pageScale="1" pageWidth="827" pageHeight="1169" math="0" shadow="0">
      <root>
        <mxCell id="0" />
        <mxCell id="1" parent="0" />
        <mxCell id="9uoFucoCzwH20X6F0iPq-21" value="" style="edgeStyle=orthogonalEdgeStyle;rounded=0;orthogonalLoop=1;jettySize=auto;html=1;" edge="1" parent="1" source="9uoFucoCzwH20X6F0iPq-1" target="9uoFucoCzwH20X6F0iPq-13">
          <mxGeometry relative="1" as="geometry" />
        </mxCell>
        <mxCell id="9uoFucoCzwH20X6F0iPq-1" value="start&lt;div&gt;&lt;br&gt;&lt;/div&gt;" style="rounded=1;whiteSpace=wrap;html=1;" vertex="1" parent="1">
          <mxGeometry x="330" y="140" width="170" height="60" as="geometry" />
        </mxCell>
        <mxCell id="9uoFucoCzwH20X6F0iPq-22" value="" style="edgeStyle=orthogonalEdgeStyle;rounded=0;orthogonalLoop=1;jettySize=auto;html=1;" edge="1" parent="1" source="9uoFucoCzwH20X6F0iPq-13" target="9uoFucoCzwH20X6F0iPq-17">
          <mxGeometry relative="1" as="geometry" />
        </mxCell>
        <mxCell id="9uoFucoCzwH20X6F0iPq-13" value="x: (int) =777" style="shape=card;whiteSpace=wrap;html=1;" vertex="1" parent="1">
          <mxGeometry x="355" y="230" width="120" height="80" as="geometry" />
        </mxCell>
        <mxCell id="9uoFucoCzwH20X6F0iPq-15" value="calculate 55*55555&lt;div&gt;&lt;br&gt;&lt;/div&gt;" style="text;html=1;align=center;verticalAlign=middle;whiteSpace=wrap;rounded=0;" vertex="1" parent="1">
          <mxGeometry x="400" y="40" width="60" height="30" as="geometry" />
        </mxCell>
        <mxCell id="9uoFucoCzwH20X6F0iPq-24" value="" style="edgeStyle=orthogonalEdgeStyle;rounded=0;orthogonalLoop=1;jettySize=auto;html=1;" edge="1" parent="1" source="9uoFucoCzwH20X6F0iPq-16" target="9uoFucoCzwH20X6F0iPq-18">
          <mxGeometry relative="1" as="geometry" />
        </mxCell>
        <mxCell id="9uoFucoCzwH20X6F0iPq-16" value="y: (int) = 888" style="shape=card;whiteSpace=wrap;html=1;" vertex="1" parent="1">
          <mxGeometry x="355" y="460" width="120" height="80" as="geometry" />
        </mxCell>
        <mxCell id="9uoFucoCzwH20X6F0iPq-23" value="" style="edgeStyle=orthogonalEdgeStyle;rounded=0;orthogonalLoop=1;jettySize=auto;html=1;" edge="1" parent="1" source="9uoFucoCzwH20X6F0iPq-17" target="9uoFucoCzwH20X6F0iPq-16">
          <mxGeometry relative="1" as="geometry" />
        </mxCell>
        <mxCell id="9uoFucoCzwH20X6F0iPq-17" value="print(x)" style="shape=document;whiteSpace=wrap;html=1;boundedLbl=1;" vertex="1" parent="1">
          <mxGeometry x="355" y="350" width="120" height="80" as="geometry" />
        </mxCell>
        <mxCell id="9uoFucoCzwH20X6F0iPq-27" value="" style="edgeStyle=orthogonalEdgeStyle;rounded=0;orthogonalLoop=1;jettySize=auto;html=1;" edge="1" parent="1" source="9uoFucoCzwH20X6F0iPq-18" target="9uoFucoCzwH20X6F0iPq-26">
          <mxGeometry relative="1" as="geometry" />
        </mxCell>
        <mxCell id="9uoFucoCzwH20X6F0iPq-18" value="print(y)" style="shape=document;whiteSpace=wrap;html=1;boundedLbl=1;" vertex="1" parent="1">
          <mxGeometry x="354" y="585" width="120" height="80" as="geometry" />
        </mxCell>
        <mxCell id="9uoFucoCzwH20X6F0iPq-29" value="" style="edgeStyle=orthogonalEdgeStyle;rounded=0;orthogonalLoop=1;jettySize=auto;html=1;" edge="1" parent="1" source="9uoFucoCzwH20X6F0iPq-26" target="9uoFucoCzwH20X6F0iPq-28">
          <mxGeometry relative="1" as="geometry" />
        </mxCell>
        <mxCell id="9uoFucoCzwH20X6F0iPq-26" value="z: (int) = 999" style="shape=card;whiteSpace=wrap;html=1;" vertex="1" parent="1">
          <mxGeometry x="354" y="720" width="120" height="80" as="geometry" />
        </mxCell>
        <mxCell id="9uoFucoCzwH20X6F0iPq-33" value="" style="edgeStyle=orthogonalEdgeStyle;rounded=0;orthogonalLoop=1;jettySize=auto;html=1;" edge="1" parent="1" source="9uoFucoCzwH20X6F0iPq-28" target="9uoFucoCzwH20X6F0iPq-32">
          <mxGeometry relative="1" as="geometry" />
        </mxCell>
        <mxCell id="9uoFucoCzwH20X6F0iPq-28" value="print(z)" style="shape=document;whiteSpace=wrap;html=1;boundedLbl=1;" vertex="1" parent="1">
          <mxGeometry x="354" y="860" width="120" height="80" as="geometry" />
        </mxCell>
        <mxCell id="9uoFucoCzwH20X6F0iPq-35" value="" style="edgeStyle=orthogonalEdgeStyle;rounded=0;orthogonalLoop=1;jettySize=auto;html=1;" edge="1" parent="1" source="9uoFucoCzwH20X6F0iPq-32" target="9uoFucoCzwH20X6F0iPq-34">
          <mxGeometry relative="1" as="geometry" />
        </mxCell>
        <mxCell id="9uoFucoCzwH20X6F0iPq-32" value="print(x*y+z)" style="shape=card;whiteSpace=wrap;html=1;" vertex="1" parent="1">
          <mxGeometry x="354" y="970" width="120" height="80" as="geometry" />
        </mxCell>
        <mxCell id="9uoFucoCzwH20X6F0iPq-34" value="end" style="whiteSpace=wrap;html=1;" vertex="1" parent="1">
          <mxGeometry x="354" y="1140" width="120" height="60" as="geometry" />
        </mxCell>
      </root>
    </mxGraphModel>
  </diagram>
</mxfile>
